<svg width="131" height="24" viewBox="0 0 131 24" fill="none" xmlns="http://www.w3.org/2000/svg">
<path d="M66 0H70.4951C73.827 0 75.5743 2.10323 75.5743 6.33722C75.5743 10.5712 73.8509 12.7075 70.5478 12.7075H68.8196V19.0172H66V0ZM70.3946 10.3124C71.9935 10.3124 72.5823 9.5251 72.5823 7.0695V5.72608C72.5823 3.33103 71.9935 2.62629 70.3467 2.62629H68.8196V10.3345L70.3946 10.3124Z" fill="white"/>
<path d="M80.9791 8.77636C80.9791 7.44395 80.7253 6.79977 79.5668 6.79977C78.5599 6.85972 77.5699 7.12248 76.6419 7.57609L76.2493 5.43982C77.3514 4.77341 78.5756 4.41857 79.8206 4.40472C82.2572 4.40472 83.3487 5.71511 83.3487 9.63527V16.3799C83.3487 16.9636 83.5306 17.1287 83.904 17.1287H84.3444L84.4162 18.4611C84.0019 18.8185 83.498 19.0117 82.9801 19.0117C82.6183 19.0088 82.2587 18.9457 81.9125 18.8245L81.1945 17.382L80.4525 18.6924C79.9679 18.9268 79.4462 19.043 78.9206 19.0337C77.2068 19.0337 75.8376 17.9987 75.8376 15.009C75.8376 12.0193 77.0105 10.83 79.6578 10.4612L80.9791 10.274V8.77636ZM80.9791 11.9257L79.7966 12.1129C78.5711 12.3001 78.1068 12.7791 78.1068 14.3538V15.2567C78.1068 16.6442 78.6142 17.1012 79.519 17.1012C79.7919 17.118 80.0647 17.0645 80.3173 16.9445C80.5699 16.8244 80.796 16.641 80.9791 16.4075V11.9257Z" fill="white"/>
<path d="M88.9784 5.12052C89.4008 4.86413 89.87 4.7264 90.3476 4.71859C90.7704 4.69789 91.1893 4.81836 91.5539 5.06546L91.1805 7.57612C90.7767 7.43623 90.3576 7.36391 89.9359 7.36139C89.2541 7.35918 88.5874 7.59116 88.021 8.0276V19.0393H85.6753V4.95534H87.1832L87.9492 6.82182L88.9784 5.12052Z" fill="white"/>
<path d="M93.2868 15.2071V6.66757H92.1475V4.66895H93.4448L93.4974 0H95.6804V4.69098H97.7915V6.6896H95.6804V15.9009C95.6804 16.7267 95.9341 17.002 96.724 17.002H97.9303L98.0452 18.4721C97.3965 18.8407 96.6816 19.0293 95.958 19.0227C94.1868 19.0172 93.2868 17.8444 93.2868 15.2071Z" fill="white"/>
<path d="M102.827 5.14807C103.355 4.85137 103.935 4.69696 104.522 4.69659C106.169 4.69659 107.236 5.89687 107.236 8.72137V19.0173H104.872V8.34697C104.872 7.36142 104.431 7.01456 103.665 7.01456C103.037 7.0286 102.425 7.25031 101.904 7.65323V19.0173H99.5339V4.95537H101.09L101.832 6.63465L102.827 5.14807Z" fill="white"/>
<path d="M110.918 12.6635C110.918 15.9174 111.521 16.7488 113.072 16.7488C114.009 16.6957 114.929 16.4437 115.787 16.0055L116.112 18.0592C115.143 18.712 114.037 19.0436 112.914 19.0172C109.946 19.0172 108.462 16.7819 108.462 11.711C108.462 6.64009 110.042 4.40472 112.632 4.40472C115.346 4.40472 116.461 6.72819 116.461 10.753V12.5699H110.918V12.6635ZM114.164 10.6649V9.81697C114.164 7.3063 113.723 6.51346 112.656 6.51346C111.473 6.51346 110.942 7.36687 110.918 10.6759L114.164 10.6649Z" fill="white"/>
<path d="M121.052 5.12052C121.475 4.86413 121.944 4.7264 122.421 4.71859C122.844 4.69789 123.263 4.81836 123.628 5.06546L123.254 7.57612C122.849 7.43556 122.428 7.36323 122.005 7.36139C121.323 7.36085 120.657 7.59268 120.09 8.0276V19.0393H117.725V4.95534H119.233L119.999 6.82182L121.052 5.12052Z" fill="white"/>
<path d="M124.322 18.2189L124.624 16.2478C125.391 16.6455 126.219 16.8626 127.06 16.8865C128.195 16.8865 128.731 16.435 128.731 14.9925C128.731 13.55 128.381 13.4178 126.62 12.6966C125.184 12.113 124.274 11.1219 124.274 8.56169C124.274 5.59955 125.667 4.37725 127.826 4.37725C128.777 4.35396 129.718 4.60977 130.56 5.12054L130.191 7.20175C129.493 6.86653 128.745 6.69433 127.989 6.69521C126.921 6.69521 126.457 7.06961 126.457 8.37449C126.457 9.67938 126.936 9.87208 128.405 10.4832C130.143 11.177 131 12.19 131 14.7778C131 17.4977 129.774 19.0173 127.314 19.0173C126.272 19.0684 125.238 18.7924 124.322 18.2189Z" fill="white"/>
<path d="M55.2226 7.52642C53.7207 7.10457 52.1945 6.8065 50.6557 6.63448V3.74942L52.8338 4.05774C54.5786 4.29293 56.2808 4.83904 57.8795 5.67646L61.7092 2.99512V6.97584L59.6795 8.41837L61.2975 9.35987C61.8179 10.3148 62.0779 11.4269 62.0443 12.5533C62.0443 16.3633 60.1917 18.7638 56.3716 18.7638C53.0205 18.7638 51.5365 17.0515 50.3733 14.8162C48.4584 16.2257 47.0222 16.6001 45.4473 16.6001C42.4936 16.6001 41 14.3041 41 11.4851C41 8.94693 42.3117 6.71707 45.3898 6.71707C46.6291 6.67465 47.8459 7.10435 48.8509 7.93936L50.2871 10.8575L55.2226 7.52642ZM52.0583 13.5829C52.9248 14.5464 53.9732 14.9923 55.553 14.9923H56.6253C58.8369 14.9923 59.6412 13.8912 59.6412 12.1403C59.6489 11.5849 59.5484 11.0346 59.3471 10.5296C59.1459 10.0247 58.8489 9.57796 58.4779 9.22222L52.0583 13.5829ZM45.6388 9.69022C43.8819 9.69022 43.4606 10.3785 43.4606 11.375C43.4606 12.3716 43.9393 13.1589 45.4904 13.1589C46.7733 13.1589 47.4914 12.8836 49.3727 11.6118C48.3722 10.2078 47.4627 9.69022 45.6388 9.69022Z" fill="#F44336"/>
<path d="M2.82442 10.6208V19.0502H0V0H2.82442V7.98898H7.09935V0H9.97165V19.0502H7.09935V10.6208H2.82442Z" fill="white"/>
<path d="M11.1301 11.8871C11.1301 6.93183 12.6764 4.72949 15.2471 4.72949C17.8178 4.72949 19.3353 6.97588 19.3353 11.81C19.3353 16.7653 17.813 19.0502 15.2471 19.0502C12.6812 19.0502 11.1301 16.7763 11.1301 11.8871ZM16.9274 12.8286V10.9731C16.9274 7.66961 16.4056 6.92082 15.2471 6.92082C14.0886 6.92082 13.5429 7.70815 13.5429 10.896V12.7515C13.5429 16.0935 14.1077 16.9304 15.2471 16.9304C16.3864 16.9304 16.9274 16.0935 16.9274 12.8286Z" fill="white"/>
<path d="M23.8256 5.12041C24.2922 4.8362 24.8155 4.69762 25.3432 4.71848C27.5405 4.71848 28.7325 6.86576 28.7325 12.0523C28.7325 17.2388 27.5883 19.0667 25.1565 19.0667C24.3463 19.073 23.5655 18.7177 22.9783 18.0757V23.6751H20.5847V4.98827H22.1501L22.8682 6.60699L23.8256 5.12041ZM24.5724 17.2333C25.7644 17.2333 26.2814 16.2918 26.2814 13.3351V10.7914C26.2814 7.88985 25.7165 7.02543 24.6203 7.02543C24.0272 7.03831 23.4527 7.26562 22.9783 7.67512V16.5671C23.4358 16.9766 23.9932 17.2114 24.5724 17.2388V17.2333Z" fill="white"/>
<path d="M32.0979 12.8287C32.0979 16.0166 32.6915 16.8259 34.2138 16.8259C35.1279 16.7712 36.0254 16.523 36.8611 16.0937L37.1819 18.1088C36.2454 18.7422 35.1757 19.0679 34.0894 19.0503C31.1836 19.0503 29.7283 16.848 29.7283 11.8927C29.7283 6.93744 31.2745 4.73511 33.7926 4.73511C36.4542 4.73511 37.5218 7.00902 37.5218 10.9512V12.7296H32.0979V12.8287ZM35.2814 10.8686V10.0317C35.2814 7.57612 34.8457 6.79429 33.8021 6.79429C32.6436 6.79429 32.1219 7.63118 32.0979 10.8686H35.2814Z" fill="white"/>
</svg>
