<svg xmlns="http://www.w3.org/2000/svg" width="65" zoomAndPan="magnify" viewBox="0 0 375 374.999991" height="38"
     preserveAspectRatio="xMidYMid meet" version="1.0">
    <defs>
        <g/>
        <clipPath id="f727ce76a4">
            <path d="M 140.496094 150.453125 L 146.5 150.453125 L 146.5 224 L 140.496094 224 Z M 140.496094 150.453125 "
                  clip-rule="nonzero"/>
        </clipPath>
    </defs>
    <rect x="-37.5" width="450" fill="#ffffff" y="-37.499999" height="449.999989" fill-opacity="1"/>
    <rect x="-37.5" width="450" fill="#ffffff" y="-37.499999" height="449.999989" fill-opacity="1"/>
    <rect x="-37.5" width="450" fill="#000000" y="-37.499999" height="449.999989" fill-opacity="1"/>
    <g fill="#ffffff" fill-opacity="1">
        <g transform="translate(129.856328, 241.056536)">
            <g>
                <path d="M 3.238281 -107.882812 L 3.238281 -106.804688 C 12.515625 -106.804688 13.160156 -99.144531 13.160156 -77.894531 L 13.160156 -29.992188 C 13.160156 -8.738281 12.515625 -1.078125 3.238281 -1.078125 L 3.238281 0 L 32.367188 0 L 32.367188 -1.078125 C 23.085938 -1.078125 14.242188 -8.847656 14.242188 -40.242188 L 14.242188 -53.941406 L 14.347656 -100.226562 C 30.746094 -65.054688 40.457031 -44.125 57.394531 -7.875 L 58.367188 -7.875 C 71.636719 -43.476562 82.53125 -73.144531 94.183594 -104.324219 L 94.183594 -29.992188 C 94.183594 -8.738281 93.535156 -1.078125 84.257812 -1.078125 L 84.257812 0 L 113.386719 0 L 113.386719 -1.078125 C 104.109375 -1.078125 103.460938 -8.738281 103.460938 -29.992188 L 103.460938 -77.894531 C 103.460938 -99.144531 104.109375 -106.804688 113.386719 -106.804688 L 113.386719 -107.882812 L 94.398438 -107.882812 L 62.035156 -20.929688 L 20.605469 -107.882812 Z M 3.238281 -107.882812 "/>
            </g>
        </g>
    </g>
    <g clip-path="url(#f727ce76a4)">
        <path fill="#000000"
              d="M 146.5 150.453125 L 146.5 223.925781 L 140.605469 223.925781 L 140.605469 150.453125 Z M 146.5 150.453125 "
              fill-opacity="1" fill-rule="nonzero"/>
    </g>
    <g fill="#ffffff" fill-opacity="1">
        <g transform="translate(152.901329, 234.195322)">
            <g>
                <path d="M 0.320312 -26.808594 C 0.28125 -26.847656 -0.0390625 -27.050781 -0.480469 -27.289062 L -1.28125 -27.730469 L -2.324219 -28.410156 L -3.085938 -28.933594 C -3.6875 -29.332031 -5.089844 -30.375 -5.128906 -30.414062 C -5.167969 -30.496094 -5.730469 -30.894531 -5.769531 -30.894531 L -5.890625 -30.976562 L -6.453125 -31.417969 L -7.535156 -32.21875 L -7.933594 -32.578125 L -12.460938 -36.386719 L -12.664062 -36.546875 L -14.425781 -38.230469 C -15.46875 -39.3125 -15.867188 -39.671875 -16.109375 -39.871094 L -16.75 -40.554688 C -16.992188 -40.792969 -17.230469 -41.035156 -17.351562 -41.074219 L -17.511719 -41.234375 C -17.511719 -41.273438 -17.671875 -41.476562 -17.914062 -41.675781 C -18.394531 -42.117188 -18.996094 -42.757812 -19.234375 -43.078125 C -19.433594 -43.398438 -20.277344 -44.398438 -20.71875 -44.882812 L -21.597656 -45.84375 C -22.121094 -46.445312 -22.28125 -46.523438 -22.402344 -46.324219 C -22.519531 -46.164062 -22.441406 -45.921875 -22.039062 -45.523438 C -21.839844 -45.28125 -21.640625 -45.042969 -21.640625 -45 C -21.597656 -44.921875 -21.558594 -44.882812 -21.519531 -44.882812 C -21.398438 -44.882812 -19.15625 -42.15625 -19.035156 -41.835938 L -18.714844 -41.234375 L -17.472656 -39.070312 C -17.3125 -38.789062 -17.070312 -38.429688 -16.949219 -38.269531 C -16.789062 -38.109375 -16.710938 -37.949219 -16.710938 -37.910156 L -16.429688 -37.46875 C -16.269531 -37.265625 -16.027344 -36.945312 -15.949219 -36.746094 L -15.589844 -36.226562 C -15.429688 -36.023438 -14.667969 -34.824219 -14.667969 -34.742188 L -14.507812 -34.503906 L -14.386719 -34.261719 C -14.425781 -34.261719 -14.304688 -34.0625 -14.144531 -33.859375 L -14.066406 -33.742188 L -13.625 -32.980469 C -13.425781 -32.617188 -13.222656 -32.257812 -13.222656 -32.21875 C -13.222656 -32.179688 -13.183594 -32.097656 -13.144531 -32.058594 C -12.863281 -31.859375 -12.261719 -30.414062 -12.222656 -29.933594 C -12.183594 -29.613281 -12.183594 -29.574219 -12.300781 -29.652344 C -12.382812 -29.652344 -12.542969 -29.773438 -12.703125 -29.855469 L -13.0625 -30.09375 L -13.503906 -30.414062 C -13.703125 -30.535156 -14.066406 -30.816406 -14.347656 -30.976562 L -14.945312 -31.335938 L -15.507812 -31.777344 C -15.949219 -32.097656 -16.710938 -32.777344 -17.070312 -33.101562 L -18.03125 -34.0625 L -18.554688 -34.503906 C -18.914062 -34.824219 -19.234375 -35.101562 -19.59375 -35.464844 C -19.675781 -35.542969 -19.796875 -35.625 -19.796875 -35.625 C -19.835938 -35.625 -20.195312 -36.023438 -20.636719 -36.507812 L -21.71875 -37.707031 L -22.160156 -38.148438 C -22.960938 -39.191406 -23.363281 -39.632812 -23.683594 -39.871094 L -24.082031 -40.273438 L -24.402344 -40.554688 L -25.324219 -41.394531 L -26.648438 -42.636719 C -26.929688 -42.917969 -27.128906 -43.117188 -27.449219 -43.398438 L -27.808594 -43.71875 L -28.171875 -44.078125 C -28.691406 -44.519531 -29.011719 -44.519531 -29.011719 -44.039062 C -29.011719 -43.917969 -28.933594 -43.757812 -28.652344 -43.519531 L -27.128906 -42.074219 C -26.929688 -41.835938 -26.648438 -41.554688 -26.488281 -41.433594 C -26.289062 -41.316406 -26.046875 -41.074219 -25.886719 -40.914062 C -25.207031 -40.273438 -24.84375 -39.910156 -24.242188 -39.390625 C -23.683594 -38.871094 -22.722656 -37.867188 -22.722656 -37.75 C -22.722656 -37.667969 -21.917969 -36.785156 -21.878906 -36.828125 C -21.878906 -36.867188 -21.480469 -36.464844 -21.039062 -35.984375 C -20.195312 -35.0625 -19.996094 -34.863281 -19.195312 -34.140625 C -18.953125 -33.941406 -18.753906 -33.742188 -18.753906 -33.699219 C -18.792969 -33.660156 -18.792969 -33.621094 -18.753906 -33.660156 C -18.714844 -33.699219 -18.433594 -33.5 -18.152344 -33.21875 L -16.949219 -32.097656 C -16.550781 -31.777344 -16.027344 -31.335938 -15.789062 -31.175781 L -15.386719 -30.894531 C -15.265625 -30.777344 -14.105469 -30.015625 -14.066406 -30.015625 L -13.664062 -29.734375 C -13.183594 -29.371094 -12.222656 -28.851562 -12.0625 -28.851562 C -11.582031 -28.851562 -11.660156 -29.933594 -12.183594 -31.097656 C -12.421875 -31.695312 -12.945312 -32.578125 -13.105469 -32.738281 C -13.183594 -32.777344 -13.222656 -32.859375 -13.222656 -32.898438 C -13.222656 -32.941406 -13.304688 -33.140625 -13.425781 -33.339844 L -14.425781 -34.941406 L -14.988281 -35.945312 C -14.988281 -35.984375 -15.066406 -36.066406 -15.148438 -36.105469 C -15.226562 -36.183594 -15.308594 -36.265625 -15.308594 -36.304688 C -15.308594 -36.34375 -15.386719 -36.464844 -15.507812 -36.625 C -15.628906 -36.785156 -15.789062 -36.988281 -15.828125 -37.066406 L -15.988281 -37.386719 C -16.148438 -37.585938 -16.46875 -38.109375 -16.550781 -38.230469 L -16.710938 -38.46875 C -16.910156 -38.710938 -17.390625 -39.550781 -17.390625 -39.632812 C -17.390625 -39.671875 -17.429688 -39.75 -17.511719 -39.792969 C -17.589844 -39.871094 -17.710938 -40.03125 -17.792969 -40.191406 L -18.191406 -40.992188 L -17.871094 -40.714844 L -16.671875 -39.511719 C -16.589844 -39.472656 -15.828125 -38.75 -15.589844 -38.46875 C -15.386719 -38.230469 -14.828125 -37.707031 -14.425781 -37.386719 L -13.90625 -36.945312 L -13.425781 -36.425781 L -12.863281 -35.984375 L -11.460938 -34.742188 L -10.78125 -34.222656 L -10.417969 -33.902344 C -10.257812 -33.78125 -10.097656 -33.660156 -10.097656 -33.621094 C -10.097656 -33.582031 -10.058594 -33.582031 -10.019531 -33.582031 C -9.9375 -33.582031 -9.054688 -32.859375 -8.976562 -32.738281 L -8.457031 -32.339844 L -7.8125 -31.816406 L -7.09375 -31.257812 L -5.972656 -30.453125 L -5.050781 -29.8125 C -3.96875 -29.09375 -3.285156 -28.613281 -3.164062 -28.492188 C -3.085938 -28.410156 -3.046875 -28.371094 -3.046875 -28.410156 C -3.046875 -28.410156 -2.925781 -28.371094 -2.804688 -28.292969 L -1.5625 -27.53125 L -0.441406 -26.96875 C -0.0390625 -26.769531 0.359375 -26.6875 0.320312 -26.808594 Z M 0.921875 -4.328125 C 1.160156 -4.808594 0.960938 -5.972656 0.480469 -7.09375 C 0.402344 -7.253906 0.28125 -7.535156 0.28125 -7.695312 C 0.160156 -8.214844 -1.804688 -12.183594 -2.164062 -12.582031 L -2.726562 -13.425781 C -3.207031 -14.1875 -3.164062 -14.144531 -3.566406 -14.585938 L -4.289062 -15.507812 L -5.25 -16.671875 L -5.890625 -17.390625 L -6.25 -17.871094 C -6.410156 -18.074219 -6.691406 -18.433594 -6.933594 -18.671875 L -10.179688 -22.519531 C -10.738281 -23.160156 -11.582031 -24.164062 -11.941406 -24.683594 C -12.222656 -25.046875 -12.542969 -25.40625 -12.664062 -25.40625 C -12.742188 -25.40625 -13.023438 -25.726562 -12.984375 -25.804688 C -12.984375 -25.847656 -12.984375 -25.925781 -13.0625 -26.007812 L -14.945312 -28.25 C -15.027344 -28.332031 -15.148438 -28.410156 -15.265625 -28.453125 C -15.347656 -28.492188 -15.46875 -28.570312 -15.507812 -28.691406 C -15.546875 -28.851562 -16.230469 -29.652344 -16.628906 -30.015625 L -17.03125 -30.414062 L -19.195312 -32.738281 C -19.476562 -33.058594 -19.914062 -33.460938 -20.15625 -33.621094 C -20.398438 -33.78125 -20.558594 -33.941406 -20.515625 -34.019531 C -20.515625 -34.0625 -20.515625 -34.101562 -20.558594 -34.101562 C -20.636719 -34.101562 -20.996094 -34.503906 -21.117188 -34.703125 C -21.15625 -34.78125 -21.238281 -34.824219 -21.320312 -34.824219 C -21.398438 -34.78125 -21.4375 -34.824219 -21.4375 -34.941406 C -21.4375 -35.0625 -21.519531 -35.144531 -21.640625 -35.183594 C -21.757812 -35.222656 -21.839844 -35.304688 -21.839844 -35.34375 C -21.839844 -35.425781 -22.121094 -35.746094 -22.800781 -36.507812 L -23.480469 -37.308594 C -24.125 -38.109375 -24.644531 -38.628906 -24.765625 -38.589844 C -24.886719 -38.507812 -24.886719 -38.308594 -24.726562 -38.230469 C -24.683594 -38.1875 -24.484375 -37.988281 -24.285156 -37.75 C -23.683594 -37.027344 -22.320312 -35.585938 -22.160156 -35.503906 C -22.078125 -35.464844 -22.039062 -35.425781 -22.039062 -35.382812 C -22.078125 -35.34375 -21.917969 -35.144531 -21.757812 -34.984375 L -21.199219 -34.382812 C -21.078125 -34.261719 -20.878906 -34.0625 -20.757812 -33.980469 C -20.636719 -33.902344 -20.558594 -33.78125 -20.558594 -33.742188 C -20.558594 -33.742188 -19.996094 -33.101562 -19.316406 -32.417969 C -17.429688 -30.414062 -16.269531 -29.171875 -16.269531 -29.132812 C -16.269531 -29.09375 -15.347656 -28.128906 -14.667969 -27.371094 L -13.945312 -26.527344 C -13.785156 -26.289062 -13.503906 -26.007812 -13.382812 -25.847656 C -13.222656 -25.726562 -13.105469 -25.566406 -13.105469 -25.527344 C -13.105469 -25.484375 -13.023438 -25.367188 -12.902344 -25.246094 L -11.179688 -23.121094 L -10.539062 -22.320312 C -10.417969 -22.199219 -10.378906 -22.078125 -10.378906 -22.078125 C -10.378906 -22.039062 -10.296875 -21.960938 -10.21875 -21.878906 L -9.296875 -20.835938 C -8.375 -19.675781 -8.09375 -19.355469 -7.414062 -18.59375 C -7.09375 -18.234375 -6.773438 -17.832031 -6.730469 -17.710938 C -6.652344 -17.550781 -6.613281 -17.429688 -6.570312 -17.429688 C -6.53125 -17.429688 -6.292969 -17.230469 -6.050781 -16.949219 L -5.449219 -16.308594 C -5.328125 -16.230469 -5.25 -16.109375 -5.25 -16.027344 C -5.25 -15.988281 -5.167969 -15.867188 -5.050781 -15.75 C -4.890625 -15.628906 -4.769531 -15.46875 -4.730469 -15.347656 C -4.730469 -15.265625 -4.609375 -15.066406 -4.527344 -14.988281 L -4.207031 -14.625 C -4.167969 -14.546875 -3.96875 -14.386719 -3.847656 -14.265625 C -3.6875 -14.144531 -3.566406 -14.066406 -3.605469 -14.023438 C -3.605469 -13.984375 -3.484375 -13.746094 -3.285156 -13.464844 C -3.085938 -13.183594 -2.925781 -12.902344 -2.925781 -12.863281 L -2.40625 -12.023438 C -2.125 -11.582031 -1.84375 -11.101562 -1.804688 -10.941406 L -1.441406 -10.296875 L -1.042969 -9.417969 C -0.601562 -8.335938 -0.519531 -8.132812 -0.359375 -7.695312 L 0 -6.691406 C 0.121094 -6.410156 0.199219 -6.011719 0.199219 -5.609375 C 0.242188 -4.929688 0.242188 -4.929688 0.0390625 -5.007812 C -0.402344 -5.128906 -0.519531 -5.128906 -0.601562 -4.96875 C -0.679688 -4.890625 -0.679688 -4.769531 -0.640625 -4.609375 C -0.519531 -4.289062 -0.199219 -4.085938 0.320312 -4.046875 L 0.800781 -4.007812 Z M 0.921875 -4.328125 "/>
            </g>
        </g>
    </g>
    <g fill="#ffffff" fill-opacity="1">
        <g transform="translate(152.901329, 193.401404)">
            <g>
                <path d="M -10.898438 0.480469 C -10.898438 -0.0820312 -11.5 -0.921875 -11.820312 -1.121094 L -11.863281 -1.242188 C -11.78125 -1.644531 -11.742188 -2.125 -11.742188 -2.644531 C -11.742188 -3.207031 -11.902344 -4.488281 -12.261719 -5.328125 L -12.421875 -5.691406 C -12.460938 -5.769531 -12.542969 -5.808594 -12.621094 -5.769531 C -12.703125 -5.730469 -12.703125 -5.609375 -12.664062 -5.570312 C -12.34375 -4.808594 -12.023438 -3.925781 -12.023438 -2.566406 C -12.023438 -2.242188 -12.0625 -1.921875 -12.140625 -1.683594 C -12.183594 -1.601562 -12.222656 -1.523438 -12.261719 -1.363281 L -12.621094 -1.363281 C -12.664062 -1.363281 -12.742188 -1.363281 -12.78125 -1.324219 C -12.863281 -1.28125 -12.945312 -1.160156 -12.945312 -1.042969 L -12.984375 -0.519531 L -13.023438 -0.441406 L -12.902344 -0.121094 L -12.222656 0.5625 C -12.101562 0.679688 -11.339844 1.121094 -11.019531 0.921875 C -10.859375 0.800781 -10.859375 0.800781 -10.898438 0.480469 Z M -12.460938 -0.800781 C -12.503906 -0.722656 -12.542969 -0.679688 -12.542969 -0.761719 C -12.542969 -0.800781 -12.503906 -0.839844 -12.503906 -0.882812 C -12.460938 -0.882812 -12.421875 -0.882812 -12.460938 -0.800781 Z M -11.261719 0.359375 C -11.261719 0.402344 -11.460938 0.5625 -11.941406 0.199219 C -12.261719 -0.0390625 -12.300781 -0.160156 -12.300781 -0.28125 L -12.183594 -0.441406 L -12.0625 -0.679688 C -12.023438 -0.722656 -11.980469 -0.882812 -11.539062 -0.359375 C -11.21875 0 -11.261719 0.320312 -11.261719 0.359375 Z M -11.261719 0.359375 "/>
            </g>
        </g>
    </g>
    <g fill="#ffffff" fill-opacity="1">
        <g transform="translate(152.901329, 187.791249)">
            <g>
                <path d="M -22.039062 -14.425781 C -22.160156 -14.347656 -22.160156 -13.945312 -22.078125 -13.542969 L -22 -13.105469 C -21.960938 -12.863281 -21.839844 -12.460938 -21.757812 -12.300781 L -21.679688 -11.980469 C -21.4375 -11.140625 -20.957031 -10.019531 -20.476562 -9.175781 L -20.238281 -8.734375 L -19.996094 -8.375 L -19.554688 -7.695312 C -19.234375 -7.214844 -18.835938 -6.652344 -18.792969 -6.613281 L -17.792969 -5.328125 L -17.070312 -4.488281 L -15.867188 -3.125 C -15.667969 -2.925781 -15.429688 -2.683594 -15.347656 -2.566406 L -15.226562 -2.203125 C -15.148438 -2.003906 -15.105469 -1.84375 -15.066406 -1.84375 C -15.066406 -1.84375 -15.027344 -1.804688 -15.027344 -1.761719 C -15.027344 -1.722656 -14.988281 -1.601562 -14.90625 -1.441406 C -14.867188 -1.324219 -14.828125 -1.242188 -14.785156 -1.203125 L -14.625 -0.800781 L -14.1875 0.441406 C -14.144531 0.5625 -14.066406 0.722656 -14.023438 0.761719 C -13.863281 0.839844 -13.785156 0.800781 -13.785156 0.640625 C -13.785156 0.5625 -13.824219 0.402344 -13.863281 0.242188 L -14.066406 -0.160156 C -14.144531 -0.28125 -14.1875 -0.441406 -14.226562 -0.601562 L -14.464844 -1.324219 C -14.507812 -1.363281 -14.507812 -1.441406 -14.546875 -1.523438 C -14.585938 -1.523438 -14.667969 -1.804688 -14.625 -1.84375 C -14.625 -1.84375 -14.304688 -1.5625 -13.945312 -1.160156 L -12.460938 0.242188 L -12.300781 0.402344 L -11.863281 0.761719 L -11.460938 1.121094 C -11.339844 1.242188 -11.179688 1.402344 -11.019531 1.402344 C -10.898438 1.402344 -10.820312 1.242188 -10.78125 1.160156 C -10.738281 1.042969 -10.78125 1 -10.820312 0.960938 L -10.898438 0.839844 L -11.058594 0.640625 L -11.179688 0.519531 L -11.261719 0.402344 L -11.300781 0.320312 L -11.78125 -0.160156 L -11.902344 -0.402344 L -11.902344 -0.441406 L -12.0625 -0.679688 C -12.140625 -0.761719 -12.222656 -0.960938 -12.261719 -1.121094 L -12.421875 -1.5625 C -12.460938 -1.683594 -12.503906 -1.761719 -12.460938 -1.761719 C -12.421875 -1.761719 -12.421875 -1.761719 -12.421875 -1.722656 C -12.421875 -1.683594 -12.0625 -1.402344 -11.820312 -1.28125 L -11.582031 -1.160156 C -11.21875 -1 -11.058594 -1 -10.898438 -1.203125 C -10.820312 -1.324219 -10.78125 -1.402344 -10.820312 -1.523438 L -10.859375 -1.601562 C -10.898438 -1.921875 -11.378906 -3.003906 -11.460938 -3.164062 C -11.539062 -3.40625 -11.582031 -3.324219 -11.820312 -3.886719 C -11.820312 -3.96875 -11.980469 -4.128906 -12.0625 -4.328125 C -12.460938 -5.167969 -12.183594 -4.449219 -12.460938 -5.210938 C -12.703125 -5.570312 -12.703125 -5.289062 -12.703125 -5.128906 L -12.261719 -4.128906 C -12.023438 -3.605469 -11.421875 -2.203125 -11.261719 -1.804688 L -11.21875 -1.644531 L -11.21875 -1.5625 C -11.21875 -1.523438 -11.378906 -1.5625 -11.621094 -1.683594 L -11.742188 -1.722656 C -11.902344 -1.804688 -12.183594 -2.042969 -12.542969 -2.40625 C -12.742188 -2.566406 -12.78125 -2.605469 -12.863281 -2.566406 C -12.984375 -2.484375 -12.984375 -2.324219 -12.824219 -1.804688 C -12.582031 -1.160156 -12.460938 -0.800781 -12.300781 -0.480469 C -12.300781 -0.441406 -12.261719 -0.441406 -12.261719 -0.402344 C -12.222656 -0.320312 -12.183594 -0.242188 -12.222656 -0.199219 L -12.300781 -0.199219 C -12.503906 -0.320312 -13.585938 -1.402344 -14.347656 -2.164062 L -15.027344 -2.84375 L -15.148438 -3.046875 L -15.828125 -4.566406 C -16.070312 -5.089844 -16.1875 -5.410156 -16.230469 -5.488281 L -16.511719 -6.171875 C -16.671875 -6.492188 -16.789062 -6.8125 -16.789062 -6.851562 C -16.789062 -6.933594 -16.871094 -7.132812 -16.949219 -7.292969 C -17.351562 -8.132812 -18.191406 -9.976562 -18.472656 -10.417969 L -18.554688 -10.660156 C -18.59375 -10.78125 -18.671875 -10.859375 -18.714844 -10.859375 C -18.753906 -10.898438 -18.792969 -10.980469 -18.835938 -11.058594 C -18.835938 -11.140625 -18.914062 -11.300781 -18.996094 -11.421875 L -19.355469 -12.023438 C -19.515625 -12.222656 -19.753906 -12.621094 -19.957031 -12.863281 L -20.398438 -13.464844 C -20.515625 -13.664062 -21.039062 -14.1875 -21.320312 -14.347656 C -21.597656 -14.546875 -21.878906 -14.546875 -22.039062 -14.425781 Z M -21.4375 -14.023438 L -21.15625 -13.785156 C -21.039062 -13.703125 -20.878906 -13.585938 -20.878906 -13.542969 L -20.558594 -13.144531 C -20.316406 -12.902344 -19.914062 -12.300781 -19.59375 -11.78125 L -18.835938 -10.417969 L -18.59375 -9.9375 L -18.351562 -9.496094 L -17.992188 -8.734375 C -17.832031 -8.496094 -17.710938 -8.214844 -17.671875 -8.09375 L -17.472656 -7.535156 L -17.109375 -6.730469 L -16.75 -5.851562 C -16.671875 -5.648438 -16.589844 -5.449219 -16.589844 -5.410156 C -16.589844 -5.371094 -16.511719 -5.210938 -16.429688 -5.007812 C -16.347656 -4.847656 -16.269531 -4.648438 -16.269531 -4.609375 C -16.269531 -4.566406 -16.148438 -4.367188 -16.027344 -4.128906 C -15.910156 -3.847656 -15.867188 -3.726562 -15.910156 -3.726562 C -15.949219 -3.726562 -16.027344 -3.726562 -16.027344 -3.765625 L -16.429688 -4.246094 C -17.152344 -5.050781 -18.394531 -6.53125 -18.394531 -6.613281 L -18.632812 -6.933594 C -19.113281 -7.535156 -19.957031 -8.816406 -20.476562 -9.816406 C -20.835938 -10.578125 -21.238281 -11.621094 -21.4375 -12.34375 L -21.640625 -12.984375 C -21.679688 -13.105469 -21.757812 -13.785156 -21.71875 -13.90625 C -21.679688 -13.984375 -21.640625 -14.023438 -21.558594 -14.066406 C -21.519531 -14.066406 -21.4375 -14.023438 -21.4375 -14.023438 Z M -21.4375 -14.023438 "/>
            </g>
        </g>
    </g>
    <g fill="#ffffff" fill-opacity="1">
        <g transform="translate(152.901329, 182.702003)">
            <g>
                <path d="M -10.941406 -0.882812 C -10.898438 -1.042969 -10.898438 -1.203125 -10.941406 -1.363281 L -10.941406 -1.484375 C -10.941406 -1.484375 -11.101562 -2.203125 -11.460938 -2.964844 L -12.503906 -5.25 C -12.542969 -5.328125 -12.664062 -5.328125 -12.703125 -5.25 L -12.742188 -5.210938 L -12.742188 -5.089844 L -12.703125 -5.007812 C -11.941406 -3.246094 -11.460938 -2.042969 -11.339844 -1.523438 C -11.339844 -1.523438 -11.179688 -1 -11.339844 -0.960938 C -11.699219 -0.800781 -12.140625 -1.082031 -12.382812 -1.28125 C -12.582031 -1.441406 -13.0625 -1.84375 -13.0625 -1.363281 C -13.0625 -1.28125 -13.105469 -1.160156 -13.144531 -1.160156 C -13.304688 -1.121094 -13.265625 -1 -12.902344 -0.320312 C -12.582031 0.28125 -12.101562 1.042969 -11.699219 1.523438 C -11.539062 1.722656 -11.460938 1.804688 -11.339844 1.804688 C -11.140625 1.804688 -11.101562 1.683594 -11.101562 1.441406 C -11.101562 1.242188 -11.5 0.441406 -11.742188 0.121094 C -12.023438 -0.199219 -12.300781 -0.722656 -12.261719 -0.722656 L -11.980469 -0.601562 C -11.863281 -0.519531 -11.699219 -0.480469 -11.582031 -0.480469 C -11.421875 -0.441406 -11.300781 -0.441406 -11.140625 -0.5625 C -11.019531 -0.640625 -10.941406 -0.722656 -10.941406 -0.882812 Z M -11.460938 1.363281 L -11.621094 1.121094 C -11.863281 0.882812 -12.300781 0.242188 -12.542969 -0.28125 C -12.78125 -0.679688 -12.78125 -0.761719 -12.703125 -0.761719 C -12.664062 -0.761719 -12.582031 -0.640625 -12.542969 -0.519531 C -12.382812 -0.199219 -12.261719 -0.0390625 -12.183594 0.0390625 C -12.101562 0.121094 -11.699219 0.800781 -11.539062 1.121094 Z M -11.460938 1.363281 "/>
            </g>
        </g>
    </g>
    <g fill="#ffffff" fill-opacity="1">
        <g transform="translate(152.901329, 177.572706)">
            <g>
                <path d="M -10.058594 -5.210938 C -10.179688 -6.25 -10.621094 -8.09375 -11.300781 -9.699219 C -11.699219 -10.738281 -11.742188 -10.898438 -12.382812 -12.261719 L -12.460938 -12.382812 C -12.503906 -12.460938 -12.503906 -12.542969 -12.582031 -12.582031 C -12.664062 -12.621094 -12.703125 -12.542969 -12.742188 -12.503906 L -12.742188 -12.382812 C -12.703125 -12.300781 -12.703125 -12.222656 -12.664062 -12.140625 L -12.460938 -11.742188 L -12.421875 -11.582031 L -11.863281 -10.257812 L -11.699219 -9.738281 C -11.140625 -8.253906 -10.539062 -6.773438 -10.417969 -4.890625 C -10.417969 -4.207031 -10.5 -3.925781 -10.78125 -3.765625 C -10.941406 -3.648438 -11.101562 -3.648438 -11.421875 -3.6875 C -11.820312 -3.726562 -12.222656 -4.046875 -12.382812 -4.289062 C -12.503906 -4.449219 -12.621094 -4.488281 -12.742188 -4.367188 C -12.824219 -4.246094 -12.742188 -3.886719 -12.664062 -3.765625 C -12.542969 -3.648438 -11.980469 -1.804688 -12.023438 -1.601562 C -12.0625 -1.484375 -12.0625 -1.484375 -12.261719 -1.601562 C -12.460938 -1.683594 -12.503906 -1.683594 -12.582031 -1.601562 C -12.703125 -1.484375 -12.703125 -1.28125 -12.503906 -1.042969 L -12.34375 -0.839844 L -11.980469 -0.242188 L -11.902344 -0.160156 L -11.820312 0 C -11.820312 0.0390625 -11.742188 0.160156 -11.78125 0.199219 C -11.820312 0.199219 -11.902344 0.0820312 -11.941406 0.0390625 C -12.261719 -0.320312 -12.664062 -0.640625 -12.78125 -0.601562 L -12.902344 -0.601562 C -12.984375 -0.601562 -13.023438 -0.320312 -12.984375 -0.242188 C -12.902344 -0.160156 -11.621094 0.960938 -11.421875 1.082031 C -11.179688 1.203125 -11.058594 1.242188 -10.941406 1.121094 C -10.78125 0.960938 -10.898438 0.722656 -11.378906 -0.0390625 C -11.78125 -0.601562 -11.980469 -1 -11.863281 -0.882812 C -11.820312 -0.839844 -11.742188 -0.882812 -11.660156 -0.960938 C -11.539062 -1.121094 -11.539062 -1.160156 -11.539062 -1.441406 C -11.582031 -1.804688 -11.820312 -2.765625 -11.941406 -2.964844 C -11.980469 -3.085938 -12.023438 -3.164062 -11.980469 -3.164062 C -11.980469 -3.207031 -11.820312 -3.207031 -11.660156 -3.164062 C -10.78125 -2.925781 -10.296875 -3.207031 -10.097656 -4.007812 C -10.019531 -4.328125 -10.019531 -4.609375 -10.058594 -5.210938 Z M -10.058594 -5.210938 "/>
            </g>
        </g>
    </g>
    <g fill="#ffffff" fill-opacity="1">
        <g transform="translate(152.901329, 165.190273)">
            <g>
                <path d="M -10.941406 0.402344 C -11.019531 -0.0390625 -11.101562 -0.320312 -11.460938 -1.042969 L -12.261719 -2.84375 L -12.503906 -3.367188 C -12.542969 -3.40625 -12.664062 -3.40625 -12.703125 -3.324219 L -12.742188 -3.285156 L -12.742188 -3.164062 L -12.703125 -3.085938 C -11.742188 -0.882812 -11.261719 0.441406 -11.339844 0.679688 C -11.378906 0.761719 -11.421875 0.761719 -11.539062 0.640625 C -11.699219 0.5625 -11.742188 0.480469 -11.820312 0.199219 C -11.941406 -0.242188 -12.140625 -0.640625 -12.621094 -1.324219 C -13.0625 -1.964844 -13.304688 -2.242188 -13.425781 -2.203125 C -13.664062 -2.125 -13.625 -1.761719 -13.382812 -1.121094 C -13.105469 -0.320312 -12.382812 0.601562 -11.742188 1 C -11.421875 1.203125 -11.300781 1.242188 -11.140625 1.160156 C -10.859375 1.121094 -10.859375 1.042969 -10.941406 0.402344 Z M -12.261719 0.0820312 C -12.382812 0.0390625 -12.863281 -0.640625 -12.945312 -0.921875 C -13.0625 -1.160156 -13.222656 -1.5625 -13.144531 -1.5625 C -13.105469 -1.523438 -12.703125 -0.921875 -12.503906 -0.5625 C -12.261719 -0.121094 -12.183594 0.160156 -12.261719 0.0820312 Z M -12.261719 0.0820312 "/>
            </g>
        </g>
    </g>
    <g fill="#ffffff" fill-opacity="1">
        <g transform="translate(152.901329, 161.984463)">
            <g>
                <path d="M -9.539062 -0.921875 L -10.859375 -2.003906 C -12.222656 -3.046875 -13.585938 -4.289062 -14.144531 -4.96875 L -14.828125 -5.691406 L -15.265625 -6.25 L -15.707031 -6.851562 C -15.867188 -7.09375 -16.347656 -7.8125 -16.550781 -8.015625 L -17.03125 -8.617188 C -17.351562 -9.097656 -18.234375 -10.179688 -18.671875 -10.578125 C -19.394531 -11.300781 -19.796875 -11.660156 -20.277344 -12.023438 C -20.71875 -12.34375 -20.835938 -12.421875 -20.996094 -12.382812 C -21.238281 -12.34375 -21.199219 -12.140625 -20.957031 -11.699219 C -20.835938 -11.539062 -20.597656 -11.179688 -20.398438 -10.980469 L -19.875 -10.296875 C -19.636719 -9.9375 -18.996094 -9.257812 -18.351562 -8.65625 C -17.832031 -8.175781 -17.710938 -8.054688 -17.109375 -7.414062 L -16.710938 -7.011719 L -15.105469 -5.449219 C -14.828125 -5.167969 -14.386719 -4.527344 -14.066406 -3.886719 C -13.90625 -3.527344 -13.664062 -3.125 -13.542969 -2.925781 L -13.144531 -2.285156 L -12.984375 -2.003906 L -13.105469 -1.882812 C -13.464844 -1.601562 -13.425781 -1.160156 -12.984375 -0.359375 C -12.703125 0.160156 -11.863281 1.121094 -11.378906 1.441406 C -10.980469 1.722656 -10.738281 1.601562 -10.898438 1.160156 C -11.019531 0.761719 -11.339844 0.121094 -11.539062 -0.199219 L -11.621094 -0.359375 C -11.621094 -0.402344 -11.742188 -0.5625 -11.863281 -0.761719 L -12.0625 -1.160156 L -12.261719 -1.523438 L -13.105469 -2.886719 C -13.304688 -3.246094 -13.464844 -3.527344 -13.464844 -3.566406 C -13.464844 -3.566406 -13.265625 -3.40625 -13.105469 -3.207031 C -12.582031 -2.683594 -9.9375 -0.5625 -9.777344 -0.5625 C -9.578125 -0.601562 -9.457031 -0.800781 -9.539062 -0.921875 Z M -16.269531 -7.292969 C -16.1875 -7.09375 -16.789062 -7.613281 -17.511719 -8.414062 L -18.03125 -8.9375 C -18.394531 -9.214844 -18.671875 -9.496094 -18.996094 -9.859375 L -19.316406 -10.179688 L -19.753906 -10.699219 C -20.558594 -11.78125 -20.597656 -11.941406 -19.875 -11.339844 C -19.394531 -10.980469 -19.15625 -10.699219 -18.234375 -9.738281 C -17.914062 -9.375 -17.511719 -8.894531 -17.3125 -8.617188 L -16.789062 -7.972656 Z M -11.5 0.761719 C -11.5 0.882812 -11.820312 0.601562 -12.140625 0.242188 L -12.421875 -0.0820312 C -12.460938 -0.121094 -12.542969 -0.242188 -12.621094 -0.441406 L -12.824219 -0.839844 C -12.863281 -0.960938 -12.863281 -1.242188 -12.824219 -1.324219 C -12.742188 -1.402344 -12.503906 -1.203125 -12.34375 -0.882812 C -12.222656 -0.679688 -12.140625 -0.519531 -12.101562 -0.480469 C -12.101562 -0.441406 -11.980469 -0.160156 -11.820312 0.160156 C -11.660156 0.441406 -11.5 0.722656 -11.5 0.761719 Z M -11.5 0.761719 "/>
            </g>
        </g>
    </g>
    <g fill="#ffffff" fill-opacity="1">
        <g transform="translate(164.962624, 155.560377)">
            <g>
                <path d="M 3.011719 0 C 2.925781 0.0898438 3.011719 0.265625 3.101562 0.265625 C 3.191406 0.265625 3.191406 0.265625 3.191406 0.265625 C 3.277344 0.265625 3.367188 0.175781 3.457031 0.0898438 L 18.699219 -48.914062 L 33.941406 0.0898438 C 34.027344 0.175781 34.117188 0.265625 34.207031 0.265625 L 41.738281 0.265625 C 41.738281 0.265625 41.828125 0.265625 41.914062 0.175781 C 41.914062 0.0898438 41.914062 0.0898438 41.914062 0 L 22.683594 -61.855469 C 22.597656 -61.941406 22.597656 -61.941406 22.597656 -61.941406 C 22.597656 -61.941406 22.597656 -61.941406 22.507812 -61.941406 C 22.507812 -61.941406 22.507812 -62.03125 22.417969 -62.03125 C 22.417969 -62.03125 22.417969 -61.941406 22.417969 -61.941406 C 22.332031 -61.941406 22.332031 -61.941406 22.332031 -61.941406 C 22.332031 -61.941406 22.332031 -61.941406 22.242188 -61.855469 L 18.433594 -49.714844 Z M 3.011719 0 "/>
            </g>
        </g>
    </g>
    <g fill="#ffffff" fill-opacity="1">
        <g transform="translate(160.846131, 160.138414)">
            <g>
                <path d="M 1.574219 -4 C 2 -4.332031 2.429688 -5.410156 2.574219 -6.632812 C 2.589844 -6.847656 2.640625 -7.136719 2.691406 -7.242188 C 2.863281 -7.785156 3.121094 -12.195312 3.023438 -12.734375 C 3.003906 -12.875 2.945312 -13.304688 2.921875 -13.71875 C 2.925781 -14.648438 2.925781 -14.558594 2.808594 -15.148438 L 2.359375 -17.8125 L 2.183594 -18.742188 L 2.105469 -19.316406 L 0.996094 -25.320312 L 0.542969 -28.074219 C 0.5 -28.539062 0.367188 -29.003906 0.296875 -29.039062 C 0.1875 -29.089844 0.128906 -29.519531 0.199219 -29.574219 C 0.214844 -29.613281 0.25 -29.683594 0.25 -29.773438 L -0.273438 -32.5625 C -0.277344 -32.742188 -0.296875 -32.972656 -0.355469 -33.132812 C -0.394531 -33.421875 -0.378906 -33.546875 -0.015625 -34.484375 L 0.523438 -35.78125 C 0.902344 -36.753906 1.042969 -37.042969 1.097656 -36.972656 L 1.46875 -36.082031 L 1.914062 -34.886719 L 2.953125 -32.519531 L 3.210938 -31.949219 C 3.398438 -31.503906 3.914062 -30.363281 4.011719 -30.007812 C 4.121094 -29.777344 4.308594 -29.332031 4.472656 -29.027344 L 4.769531 -28.351562 C 4.769531 -28.261719 4.863281 -28.082031 4.953125 -27.90625 L 5.210938 -27.425781 C 5.324219 -27.105469 5.761719 -26.539062 5.980469 -26.433594 C 6.089844 -26.382812 6.179688 -26.382812 6.285156 -26.507812 L 6.441406 -26.65625 C 6.460938 -26.691406 6.242188 -26.972656 6.132812 -27.027344 C 6.023438 -27.078125 5.492188 -27.824219 5.382812 -28.144531 L 4.640625 -29.746094 L 3.824219 -31.652344 L 2.804688 -33.96875 L 2.269531 -35.25 L 1.898438 -36.050781 L 1.578125 -36.960938 L 1.300781 -37.675781 L 1.472656 -38.125 C 1.558594 -38.394531 1.886719 -39.171875 2.21875 -39.855469 C 2.949219 -41.460938 3.332031 -42.347656 3.746094 -43.300781 C 4.058594 -44.042969 4.058594 -44.042969 4.234375 -44.132812 C 4.398438 -44.191406 4.46875 -44.246094 4.535156 -44.476562 C 4.757812 -45.125 4.554688 -45.625 4.164062 -45.371094 C 4.039062 -45.296875 3.933594 -45.167969 3.65625 -44.5 C 3.3125 -43.601562 3.257812 -43.492188 3 -42.769531 C 2.898438 -42.464844 2.515625 -41.582031 2.171875 -40.769531 L 1.285156 -38.839844 C 1.199219 -38.570312 1.058594 -38.371094 1.039062 -38.335938 L 0.726562 -39.0625 L -0.210938 -41.738281 C -1.160156 -44.199219 -2.074219 -46.820312 -2.285156 -47.585938 L -2.527344 -48.371094 L -3.09375 -50.425781 C -3.324219 -51.246094 -3.71875 -52.640625 -3.757812 -52.925781 C -3.820312 -53.355469 -4.246094 -54.496094 -4.394531 -54.65625 C -4.558594 -54.867188 -4.863281 -54.96875 -5.007812 -54.949219 C -5.132812 -54.878906 -5.21875 -54.695312 -5.164062 -54.535156 C -5.125 -54.429688 -5.050781 -54.304688 -4.960938 -54.214844 C -4.886719 -54.09375 -4.8125 -53.96875 -4.777344 -53.859375 L -4.699219 -53.378906 C -4.640625 -53.21875 -4.492188 -52.699219 -4.410156 -52.21875 L -4.101562 -50.464844 L -4.058594 -50 L -3.960938 -49.644531 C -3.960938 -49.554688 -3.960938 -49.464844 -3.976562 -49.425781 C -3.996094 -49.390625 -3.976562 -49.335938 -3.941406 -49.320312 C -3.902344 -49.304688 -3.921875 -49.265625 -3.921875 -49.265625 C -3.976562 -49.25 -3.957031 -49.195312 -3.9375 -49.140625 C -3.902344 -49.125 -3.804688 -48.765625 -3.730469 -48.375 L -3.570312 -47.40625 L -3.230469 -46.085938 L -3.1875 -45.710938 C -3.1875 -45.621094 -3.183594 -45.441406 -3.167969 -45.386719 L -3.015625 -44.871094 C -2.914062 -44.15625 -2.648438 -43.046875 -2.574219 -42.835938 L -2.550781 -42.511719 L -2.492188 -42.082031 L -2.316406 -41.242188 L -2.203125 -40.652344 L -2.105469 -40.296875 L -1.855469 -38.972656 C -1.761719 -38.617188 -1.699219 -38.277344 -1.699219 -38.277344 C -1.664062 -38.257812 -1.683594 -38.222656 -1.699219 -38.1875 C -1.71875 -38.152344 -1.601562 -37.5625 -1.46875 -37.097656 C -1.449219 -36.953125 -1.429688 -36.8125 -1.445312 -36.773438 C -1.464844 -36.738281 -1.425781 -36.632812 -1.40625 -36.578125 L -1.273438 -35.933594 C -1.214844 -35.683594 -1.15625 -35.433594 -1.121094 -35.417969 C -1.015625 -35.363281 -0.980469 -35.4375 -1.019531 -35.632812 C -1.019531 -35.722656 -1.019531 -35.8125 -0.984375 -35.886719 C -0.96875 -35.921875 -0.988281 -36.0625 -1.027344 -36.171875 C -1.140625 -36.671875 -1.21875 -37.066406 -1.199219 -37.101562 C -1.183594 -37.136719 -1.203125 -37.191406 -1.238281 -37.207031 C -1.273438 -37.226562 -1.382812 -37.457031 -1.425781 -37.742188 C -1.464844 -38.027344 -1.578125 -38.441406 -1.632812 -38.601562 C -1.671875 -38.796875 -1.695312 -39.03125 -1.660156 -39.101562 C -1.625 -39.171875 -1.664062 -39.371094 -1.71875 -39.621094 C -1.832031 -39.851562 -1.890625 -40.191406 -1.945312 -40.351562 L -2.082031 -41.085938 C -2.292969 -42.121094 -2.351562 -42.28125 -2.316406 -42.355469 C -2.296875 -42.390625 -2.351562 -42.460938 -2.390625 -42.566406 C -2.445312 -42.640625 -2.484375 -42.746094 -2.464844 -42.78125 C -2.449219 -42.816406 -2.449219 -42.996094 -2.523438 -43.210938 C -2.582031 -43.371094 -2.601562 -43.605469 -2.640625 -43.710938 C -2.625 -43.835938 -2.660156 -43.945312 -2.660156 -43.945312 C -2.699219 -43.960938 -2.714844 -44.015625 -2.71875 -44.105469 C -2.683594 -44.175781 -2.703125 -44.320312 -2.703125 -44.410156 C -2.796875 -44.675781 -2.917969 -45.445312 -2.898438 -45.570312 C -2.917969 -45.625 -2.921875 -45.714844 -2.957031 -45.730469 C -2.992188 -45.75 -3.011719 -45.804688 -3.011719 -45.894531 C -2.980469 -46.054688 -3.023438 -46.609375 -3.097656 -46.734375 L -3.15625 -47.164062 C -3.195312 -47.359375 -3.269531 -47.574219 -3.269531 -47.664062 C -3.324219 -47.734375 -3.34375 -47.878906 -3.347656 -48.054688 L -3.722656 -50.417969 C -3.914062 -51.308594 -3.730469 -50.863281 -3.164062 -49.082031 C -2.902344 -48.152344 -2.429688 -46.636719 -2.058594 -45.566406 C -1.925781 -45.191406 -1.832031 -44.835938 -1.847656 -44.796875 L -1.832031 -44.746094 C -1.792969 -44.726562 -1.609375 -44.28125 -1.421875 -43.746094 C 0.351562 -38.84375 0.761719 -37.667969 0.765625 -37.578125 L -0.152344 -35.214844 C -0.378906 -34.746094 -0.566406 -34.261719 -0.550781 -34.207031 C -0.582031 -34.046875 -0.671875 -34.132812 -0.730469 -34.382812 C -0.863281 -34.9375 -0.921875 -35.1875 -0.992188 -35.222656 C -1.101562 -35.273438 -1.097656 -35.09375 -0.96875 -34.628906 L -0.792969 -33.789062 C -0.734375 -33.453125 -0.734375 -33.363281 -0.894531 -33.214844 C -0.929688 -33.144531 -1.015625 -33.054688 -0.996094 -33 C -0.996094 -32.910156 -1.167969 -32.371094 -1.628906 -30.945312 C -1.804688 -30.496094 -1.992188 -29.921875 -2.023438 -29.667969 L -2.226562 -28.878906 C -2.382812 -28.460938 -2.769531 -26.648438 -2.730469 -26.539062 L -2.550781 -26.453125 C -2.265625 -26.402344 -2.140625 -26.65625 -2.097656 -27.210938 C -2.085938 -27.785156 -1.917969 -28.59375 -1.457031 -30.105469 L -0.992188 -31.53125 C -0.824219 -32.070312 -0.738281 -32.429688 -0.652344 -32.609375 L -0.476562 -31.769531 C -0.402344 -31.464844 -0.324219 -30.984375 -0.28125 -30.699219 L -0.128906 -29.820312 C -0.0507812 -29.609375 -0.0507812 -29.429688 -0.0664062 -29.390625 C -0.0859375 -29.355469 -0.0625 -29.214844 -0.0078125 -29.054688 C 0.0507812 -28.714844 0.246094 -27.460938 0.441406 -26.390625 L 0.601562 -25.332031 C 0.621094 -25.191406 0.640625 -25.046875 0.625 -25.011719 C 0.625 -25.011719 0.625 -24.921875 0.664062 -24.816406 C 0.699219 -24.707031 0.796875 -24.082031 0.933594 -23.4375 C 1.152344 -21.953125 1.230469 -21.5625 1.441406 -20.523438 C 1.539062 -20.078125 1.617188 -19.59375 1.582031 -19.433594 C 1.585938 -19.253906 1.570312 -19.128906 1.605469 -19.109375 C 1.640625 -19.09375 1.71875 -18.789062 1.828125 -18.46875 L 2.023438 -17.574219 C 2.058594 -17.46875 2.078125 -17.324219 2.042969 -17.253906 C 2.027344 -17.21875 2.03125 -17.039062 2.085938 -16.878906 C 2.140625 -16.71875 2.179688 -16.519531 2.164062 -16.394531 C 2.128906 -16.324219 2.113281 -16.105469 2.1875 -15.984375 L 2.230469 -15.519531 L 2.382812 -15 C 2.472656 -14.820312 2.511719 -14.714844 2.492188 -14.679688 C 2.441406 -14.660156 2.445312 -14.390625 2.484375 -14.015625 C 2.507812 -13.695312 2.53125 -13.371094 2.511719 -13.335938 C 2.476562 -13.351562 2.484375 -12.90625 2.527344 -12.347656 C 2.535156 -11.8125 2.542969 -11.273438 2.507812 -11.113281 L 2.484375 -10.414062 L 2.472656 -9.929688 L 2.410156 -9.425781 C 2.300781 -8.277344 2.230469 -8.042969 2.132812 -7.558594 L 1.964844 -6.570312 C 1.898438 -6.246094 1.796875 -5.851562 1.570312 -5.472656 C 1.292969 -4.894531 1.292969 -4.894531 1.144531 -5.054688 C 0.816406 -5.390625 0.746094 -5.421875 0.585938 -5.367188 C 0.460938 -5.292969 0.390625 -5.238281 0.394531 -5.058594 C 0.308594 -4.699219 0.511719 -4.378906 0.945312 -4.082031 L 1.308594 -3.820312 Z M 1.574219 -4 "/>
            </g>
        </g>
    </g>
    <g fill="#ffffff" fill-opacity="1">
        <g transform="translate(176.210716, 128.264117)">
            <g>
                <path d="M -6.796875 -9.058594 C -6.453125 -10.050781 -6.050781 -11.902344 -5.96875 -13.640625 C -5.878906 -14.753906 -5.84375 -14.917969 -5.828125 -16.421875 L -5.851562 -16.566406 C -5.851562 -16.65625 -5.816406 -16.726562 -5.871094 -16.796875 C -5.925781 -16.871094 -5.996094 -16.8125 -6.050781 -16.796875 L -6.101562 -16.6875 C -6.101562 -16.597656 -6.136719 -16.527344 -6.132812 -16.4375 L -6.128906 -15.988281 L -6.160156 -15.828125 L -6.230469 -14.390625 L -6.3125 -13.851562 C -6.449219 -12.273438 -6.554688 -10.675781 -7.261719 -8.929688 C -7.558594 -8.3125 -7.753906 -8.097656 -8.074219 -8.074219 C -8.269531 -8.035156 -8.414062 -8.105469 -8.6875 -8.28125 C -9.03125 -8.488281 -9.253906 -8.953125 -9.292969 -9.238281 C -9.332031 -9.4375 -9.421875 -9.523438 -9.582031 -9.46875 C -9.707031 -9.394531 -9.792969 -9.035156 -9.769531 -8.890625 C -9.714844 -8.730469 -10.011719 -6.828125 -10.132812 -6.664062 C -10.222656 -6.574219 -10.222656 -6.574219 -10.351562 -6.769531 C -10.496094 -6.925781 -10.53125 -6.945312 -10.636719 -6.90625 C -10.800781 -6.851562 -10.886719 -6.671875 -10.808594 -6.367188 L -10.753906 -6.117188 L -10.6875 -5.417969 L -10.652344 -5.3125 L -10.648438 -5.132812 C -10.667969 -5.097656 -10.644531 -4.953125 -10.699219 -4.933594 C -10.734375 -4.953125 -10.753906 -5.09375 -10.773438 -5.148438 C -10.90625 -5.613281 -11.128906 -6.074219 -11.253906 -6.09375 L -11.363281 -6.144531 C -11.433594 -6.179688 -11.59375 -5.945312 -11.589844 -5.855469 C -11.554688 -5.746094 -10.886719 -4.179688 -10.757812 -3.984375 C -10.59375 -3.773438 -10.503906 -3.683594 -10.34375 -3.738281 C -10.128906 -3.8125 -10.132812 -4.082031 -10.234375 -4.976562 C -10.351562 -5.65625 -10.359375 -6.105469 -10.300781 -5.945312 C -10.285156 -5.890625 -10.195312 -5.890625 -10.085938 -5.929688 C -9.910156 -6.023438 -9.890625 -6.058594 -9.769531 -6.3125 C -9.648438 -6.652344 -9.449219 -7.625 -9.46875 -7.855469 C -9.453125 -7.980469 -9.453125 -8.070312 -9.417969 -8.054688 C -9.402344 -8.089844 -9.257812 -8.019531 -9.128906 -7.914062 C -8.441406 -7.316406 -7.886719 -7.359375 -7.355469 -7.996094 C -7.144531 -8.25 -7.023438 -8.5 -6.796875 -9.058594 Z M -6.796875 -9.058594 "/>
            </g>
        </g>
    </g>
    <g fill="#ffffff" fill-opacity="1">
        <g transform="translate(181.58745, 117.109921)">
            <g>
                <path d="M -11.6875 -7.5 C -11.652344 -7.664062 -11.835938 -7.929688 -12 -7.964844 C -12.070312 -8 -12.175781 -7.960938 -12.230469 -7.941406 C -12.410156 -7.851562 -12.40625 -7.671875 -12.207031 -7.53125 C -12.097656 -7.476562 -12.042969 -7.40625 -12.023438 -7.355469 C -12.003906 -7.210938 -11.683594 -7.324219 -11.6875 -7.5 Z M -10.078125 -4.191406 C -9.925781 -4.605469 -9.808594 -5.394531 -9.785156 -6.09375 L -9.742188 -8.03125 L -9.710938 -8.550781 C -9.734375 -8.695312 -9.839844 -8.746094 -9.910156 -8.691406 L -9.984375 -8.636719 L -10.015625 -8.566406 L -10.015625 -8.476562 C -10.097656 -6.558594 -10.183594 -5.265625 -10.320312 -4.707031 C -10.320312 -4.707031 -10.351562 -4.367188 -10.492188 -4.257812 C -10.636719 -4.328125 -10.765625 -4.433594 -10.855469 -4.609375 L -11.066406 -5.46875 C -11.21875 -6.074219 -11.347656 -6.269531 -11.503906 -6.125 C -11.578125 -6.070312 -11.605469 -5.730469 -11.546875 -5.390625 C -11.320312 -4.476562 -11.097656 -4.015625 -10.738281 -3.839844 L -10.628906 -3.789062 C -10.414062 -3.683594 -10.21875 -3.8125 -10.078125 -4.191406 Z M -10.078125 -4.191406 "/>
            </g>
        </g>
    </g>
    <g fill="#ffffff" fill-opacity="1">
        <g transform="translate(183.049092, 114.077699)">
            <g>
                <path d="M -8.648438 -6.792969 L -8.390625 -7.601562 C -8.203125 -8.359375 -8.046875 -9.792969 -8.046875 -9.792969 L -8.019531 -10.40625 L -8.007812 -10.890625 L -8.011719 -11.15625 C -8.015625 -11.515625 -8 -11.550781 -7.96875 -11.894531 C -7.921875 -12.359375 -7.90625 -12.574219 -8.136719 -12.375 C -8.207031 -12.320312 -8.257812 -12.03125 -8.296875 -11.117188 C -8.34375 -10.472656 -8.417969 -9.574219 -8.484375 -9.160156 C -8.777344 -7.167969 -9.085938 -6.25 -9.558594 -6.476562 C -9.71875 -6.507812 -9.863281 -6.667969 -9.996094 -7.042969 C -10.179688 -7.488281 -10.792969 -7.785156 -10.660156 -7.050781 C -10.621094 -6.945312 -10.636719 -6.726562 -10.632812 -6.550781 L -10.683594 -5.152344 L -10.960938 -5.59375 C -11.125 -5.808594 -11.125 -5.808594 -11.320312 -5.769531 C -11.570312 -5.710938 -11.605469 -5.550781 -11.367188 -5.121094 L -11.164062 -4.714844 C -11.015625 -4.554688 -10.722656 -4.058594 -10.648438 -3.84375 L -10.539062 -3.789062 C -10.464844 -3.667969 -10.269531 -3.703125 -10.199219 -3.847656 C -10.148438 -3.867188 -10.167969 -4.011719 -10.152344 -4.136719 C -10.210938 -4.566406 -10.285156 -5.980469 -10.292969 -6.429688 L -10.273438 -6.464844 L -10.164062 -6.324219 L -10.128906 -6.304688 L -10.054688 -6.179688 C -9.925781 -5.984375 -9.457031 -5.847656 -9.28125 -5.941406 C -8.996094 -6.070312 -8.785156 -6.414062 -8.648438 -6.792969 Z M -8.648438 -6.792969 "/>
            </g>
        </g>
    </g>
    <g fill="#ffffff" fill-opacity="1">
        <g transform="translate(186.32037, 107.291334)">
            <g>
                <path d="M -10.027344 -4.390625 C -9.910156 -4.820312 -9.859375 -5.109375 -9.871094 -5.914062 L -9.808594 -7.886719 L -9.800781 -8.460938 C -9.820312 -8.515625 -9.929688 -8.566406 -10 -8.511719 L -10.050781 -8.492188 L -10.105469 -8.386719 L -10.101562 -8.296875 C -10.195312 -5.890625 -10.335938 -4.492188 -10.511719 -4.3125 C -10.582031 -4.253906 -10.617188 -4.273438 -10.675781 -4.433594 C -10.785156 -4.574219 -10.785156 -4.664062 -10.734375 -4.953125 C -10.652344 -5.402344 -10.660156 -5.851562 -10.796875 -6.671875 C -10.914062 -7.441406 -11.011719 -7.796875 -11.136719 -7.816406 C -11.386719 -7.847656 -11.507812 -7.503906 -11.570312 -6.824219 C -11.664062 -5.980469 -11.414062 -4.835938 -11.011719 -4.195312 C -10.808594 -3.875 -10.71875 -3.789062 -10.539062 -3.789062 C -10.269531 -3.703125 -10.234375 -3.777344 -10.027344 -4.390625 Z M -11.082031 -5.253906 C -11.171875 -5.339844 -11.308594 -6.164062 -11.257812 -6.449219 C -11.261719 -6.71875 -11.234375 -7.148438 -11.160156 -7.113281 C -11.144531 -7.0625 -11.042969 -6.347656 -11.019531 -5.933594 C -10.992188 -5.433594 -11.042969 -5.144531 -11.082031 -5.253906 Z M -11.082031 -5.253906 "/>
            </g>
        </g>
    </g>
</svg>